<?xml version="1.0" encoding="UTF-8"?>
<svg id="_Слой_2" data-name="Слой 2" xmlns="http://www.w3.org/2000/svg" xmlns:xlink="http://www.w3.org/1999/xlink" viewBox="0 0 106.82 110.48">
  <defs>
    <style>
      .cls-1 {
        fill: url(#_Безымянный_градиент_20);
      }

      .cls-2 {
        fill: #e52327;
      }
    </style>
    <linearGradient id="_Безымянный_градиент_20" data-name="Безымянный градиент 20" x1="10.78" y1="24.39" x2="84.09" y2="107.04" gradientUnits="userSpaceOnUse">
      <stop offset="0" stop-color="#e52327"/>
      <stop offset=".07" stop-color="#e52625"/>
      <stop offset=".14" stop-color="#e6321f"/>
      <stop offset=".21" stop-color="#e84616"/>
      <stop offset=".28" stop-color="#eb610a"/>
      <stop offset=".32" stop-color="#ee7601"/>
      <stop offset=".33" stop-color="#ed7202"/>
      <stop offset=".44" stop-color="#ea550f"/>
      <stop offset=".55" stop-color="#e83f19"/>
      <stop offset=".67" stop-color="#e62f21"/>
      <stop offset=".81" stop-color="#e52525"/>
      <stop offset="1" stop-color="#e52327"/>
    </linearGradient>
  </defs>
  <g id="_Слой_1-2" data-name="Слой 1">
    <g>
      <g>
        <path class="cls-2" d="M98.97,37.04L41.56,2.21c-8.25-5.01-15-1.21-15,8.44h0v61.15c0,3.48,2.82,6.3,6.3,6.3h0c3.48,0,6.3-2.82,6.3-6.3v-7.66h15.66v31.15c0,3.48,2.82,6.3,6.3,6.3h.34c3.48,0,6.3-2.82,6.3-6.3V47.29c0-3.48-2.82-6.3-6.3-6.3h-.34c-3.48,0-6.3,2.82-6.3,6.3v3.94h-15.66V18.29l52.03,31.57c.43,.26,.63,.54,.63,.68s-.2,.42-.63,.68l-18.84,11.43v17.55l26.62-16.15c4.92-2.98,7.85-8.03,7.85-13.51s-2.93-10.53-7.85-13.51Z"/>
        <path class="cls-2" d="M50.22,76.09l-31.2,18.93c-1.13,.69-2.5,.51-3.34,.03-.03-.02-.68-.39-.68-.72V30.45c0-4.14-3.36-7.5-7.5-7.5h0c-4.14,0-7.5,3.36-7.5,7.5v63.88c0,5.7,3.11,10.85,8.33,13.79,2.8,1.58,5.91,2.36,9.01,2.36,3.29,0,6.57-.88,9.47-2.64l23.41-14.21v-17.55Z"/>
      </g>
      <g>
        <g>
          <path class="cls-1" d="M98.97,37.04L41.56,2.21c-8.25-5.01-15-1.21-15,8.44h0v61.15c0,3.48,2.82,6.3,6.3,6.3h0c3.48,0,6.3-2.82,6.3-6.3v-7.66h15.66v31.15c0,3.48,2.82,6.3,6.3,6.3h.34c3.48,0,6.3-2.82,6.3-6.3V47.29c0-3.48-2.82-6.3-6.3-6.3h-.34c-3.48,0-6.3,2.82-6.3,6.3v3.94h-15.66V18.29l52.03,31.57c.43,.26,.63,.54,.63,.68s-.2,.42-.63,.68l-18.84,11.43v17.55l26.62-16.15c4.92-2.98,7.85-8.03,7.85-13.51s-2.93-10.53-7.85-13.51Z"/>
          <path class="cls-1" d="M98.97,37.04L41.56,2.21c-8.25-5.01-15-1.21-15,8.44h0v61.15c0,3.48,2.82,6.3,6.3,6.3h0c3.48,0,6.3-2.82,6.3-6.3v-7.66h15.66v31.15c0,3.48,2.82,6.3,6.3,6.3h.34c3.48,0,6.3-2.82,6.3-6.3V47.29c0-3.48-2.82-6.3-6.3-6.3h-.34c-3.48,0-6.3,2.82-6.3,6.3v3.94h-15.66V18.29l52.03,31.57c.43,.26,.63,.54,.63,.68s-.2,.42-.63,.68l-18.84,11.43v17.55l26.62-16.15c4.92-2.98,7.85-8.03,7.85-13.51s-2.93-10.53-7.85-13.51Z"/>
        </g>
        <g>
          <path class="cls-1" d="M50.22,76.09l-31.2,18.93c-1.13,.69-2.5,.51-3.34,.03-.03-.02-.68-.39-.68-.72V30.45c0-4.14-3.36-7.5-7.5-7.5h0c-4.14,0-7.5,3.36-7.5,7.5v63.88c0,5.7,3.11,10.85,8.33,13.79,2.8,1.58,5.91,2.36,9.01,2.36,3.29,0,6.57-.88,9.47-2.64l23.41-14.21v-17.55Z"/>
          <path class="cls-1" d="M50.22,76.09l-31.2,18.93c-1.13,.69-2.5,.51-3.34,.03-.03-.02-.68-.39-.68-.72V30.45c0-4.14-3.36-7.5-7.5-7.5h0c-4.14,0-7.5,3.36-7.5,7.5v63.88c0,5.7,3.11,10.85,8.33,13.79,2.8,1.58,5.91,2.36,9.01,2.36,3.29,0,6.57-.88,9.47-2.64l23.41-14.21v-17.55Z"/>
        </g>
      </g>
    </g>
  </g>
</svg>